HIERARCHY
ROOT Hips
{
	OFFSET 0.000000 0.000000 0.000000
	CHANNELS 6 Xposition Yposition Zposition Zrotation Yrotation Xrotation 
	JOINT LeftUpLeg_virtual
	{
		OFFSET 0.000000 0.000000 0.000000
		CHANNELS 3 Zrotation Yrotation Xrotation
		JOINT LeftUpLeg
		{
			OFFSET 10.205400 -3.823500 0.155100
			CHANNELS 3 Zrotation Yrotation Xrotation
			JOINT LeftLeg
			{
				OFFSET 0.708757 -12.982077 0.567790
				CHANNELS 3 Zrotation Yrotation Xrotation
				JOINT LeftFoot
				{
					OFFSET -0.708756 -10.717838 -2.184338
					CHANNELS 3 Zrotation Yrotation Xrotation
					JOINT LeftToeBase
					{
						OFFSET 0.108149 -7.191104 7.560241
						CHANNELS 3 Zrotation Yrotation Xrotation
						JOINT LeftToe_End
						{
							OFFSET 0.070230 0.081724 4.490308
							CHANNELS 3 Zrotation Yrotation Xrotation
							End Site
							{
								OFFSET 0.000000 0.000000 0.000000
							}
						}
					}
				}
			}
		}
	}
	JOINT RightUpLeg_virtual
	{
		OFFSET 0.000000 0.000000 0.000000
		CHANNELS 3 Zrotation Yrotation Xrotation
		JOINT RightUpLeg
		{
			OFFSET -10.205400 -3.823500 0.005500
			CHANNELS 3 Zrotation Yrotation Xrotation
			JOINT RightLeg
			{
				OFFSET -0.708756 -12.982134 0.610632
				CHANNELS 3 Zrotation Yrotation Xrotation
				JOINT RightFoot
				{
					OFFSET 0.708754 -10.717769 -1.945823
					CHANNELS 3 Zrotation Yrotation Xrotation
					JOINT RightToeBase
					{
						OFFSET -0.108140 -7.191069 7.372968
						CHANNELS 3 Zrotation Yrotation Xrotation
						JOINT RightToe_End
						{
							OFFSET -0.070227 0.081735 4.479403
							CHANNELS 3 Zrotation Yrotation Xrotation
							End Site
							{
								OFFSET 0.000000 0.000000 0.000000
							}
						}
					}
				}
			}
		}
	}
	JOINT Spine_virtual
	{
		OFFSET 0.000000 0.000000 0.000000
		CHANNELS 3 Zrotation Yrotation Xrotation
		JOINT Spine
		{
			OFFSET 0.000000 6.876099 0.125700
			CHANNELS 3 Zrotation Yrotation Xrotation
			JOINT Spine1
			{
				OFFSET 0.000000 5.730043 0.104720
				CHANNELS 3 Zrotation Yrotation Xrotation
				JOINT Spine1_split
				{
					OFFSET 0.000000 5.730043 0.104720
					CHANNELS 3 Zrotation Yrotation Xrotation
					JOINT Spine2
					{
						OFFSET 0.000000 5.730043 0.104720
						CHANNELS 3 Zrotation Yrotation Xrotation
						JOINT Neck_virtual
						{
							OFFSET 0.000000 0.000000 0.000000
							CHANNELS 3 Zrotation Yrotation Xrotation
							JOINT Neck
							{
								OFFSET 0.000000 10.314075 0.188496
								CHANNELS 3 Zrotation Yrotation Xrotation
								JOINT Head
								{
									OFFSET 0.000000 7.643700 -2.377400
									CHANNELS 3 Zrotation Yrotation Xrotation
									JOINT HeadTop_End
									{
										OFFSET 0.000000 43.788605 -13.619600
										CHANNELS 3 Zrotation Yrotation Xrotation
										End Site
										{
											OFFSET 0.000000 0.000000 0.000000
										}
									}
								}
							}
						}
						JOINT LeftShoulder_virtual
						{
							OFFSET 0.000000 0.000000 0.000000
							CHANNELS 3 Zrotation Yrotation Xrotation
							JOINT LeftShoulder
							{
								OFFSET 2.196100 4.412489 0.087492
								CHANNELS 3 Zrotation Yrotation Xrotation
								JOINT LeftShoulder_split
								{
									OFFSET 2.196100 4.412489 0.087492
									CHANNELS 3 Zrotation Yrotation Xrotation
									JOINT LeftArm
									{
										OFFSET 8.771219 -2.981674 -0.026999
										CHANNELS 3 Zrotation Yrotation Xrotation
										JOINT LeftForeArm
										{
											OFFSET 8.512804 0.000000 -0.000000
											CHANNELS 3 Zrotation Yrotation Xrotation
											JOINT LeftHand
											{
												OFFSET 18.484802 0.000000 -0.000000
												CHANNELS 3 Zrotation Yrotation Xrotation
												End Site
												{
													OFFSET 0.000000 0.000000 0.000000
												}
											}
										}
									}
								}
							}
						}
						JOINT RightShoulder_virtual
						{
							OFFSET 0.000000 0.000000 0.000000
							CHANNELS 3 Zrotation Yrotation Xrotation
							JOINT RightShoulder
							{
								OFFSET -2.196100 4.412496 0.070690
								CHANNELS 3 Zrotation Yrotation Xrotation
								JOINT RightShoulder_split
								{
									OFFSET -2.196100 4.412496 0.070690
									CHANNELS 3 Zrotation Yrotation Xrotation
									JOINT RightArm
									{
										OFFSET -8.771282 -2.981682 -0.094208
										CHANNELS 3 Zrotation Yrotation Xrotation
										JOINT RightForeArm
										{
											OFFSET -8.494598 0.000000 0.000000
											CHANNELS 3 Zrotation Yrotation Xrotation
											JOINT RightHand
											{
												OFFSET -18.483803 0.000000 0.000001
												CHANNELS 3 Zrotation Yrotation Xrotation
												End Site
												{
													OFFSET 0.000000 0.000000 0.000000
												}
											}
										}
									}
								}
							}
						}
					}
				}
			}
		}
	}
}
MOTION
Frames: 10
Frame Time: 0.033333
0.557965 26.919327 -3.305312 -0.065967 -0.086400 -0.003808 3.610661 -77.664148 -2.252360 46.460692 40.199925 -15.373584 -14.880481 -15.142360 39.625698 -44.390212 20.647541 -6.205072 -2.200568 -8.857906 3.953072 0.000000 0.000000 0.000000 -2.111386 -77.838953 1.766267 -25.356577 -7.712348 -31.686706 12.990951 17.785748 53.006626 51.084033 4.539844 -26.439118 -15.238842 2.364546 4.623351 0.000000 0.000000 0.000000 -0.936788 -72.897851 2.432776 2.036233 4.302419 0.349808 -2.863152 0.369547 5.167372 0.193784 -0.844012 0.176974 -0.024554 0.025615 0.012592 -1.357466 2.068433 10.429990 5.568192 24.252462 -10.794570 -13.449566 -6.211530 18.240068 0.000000 0.000000 0.000000 -1.490979 0.063861 9.955828 -6.469093 -0.339763 4.415568 -4.274603 -7.163163 4.914863 6.721906 -18.882442 -63.506259 11.385784 -13.530967 6.445253 0.000000 0.000000 0.000000 -1.819054 -0.471884 6.571156 1.211309 16.826011 -4.631507 7.885664 -2.002157 13.038937 35.202406 66.222345 28.294149 169.929588 84.907721 -177.846788 0.000000 0.000000 0.000000 
0.577622 26.913897 -3.292326 -0.256307 -0.005160 -0.042633 2.709342 -77.619533 -1.344022 47.073264 39.146939 -14.988985 -15.323384 -15.222183 40.524134 -44.336711 20.627421 -7.025184 -1.128745 -8.610385 3.893501 0.000000 0.000000 0.000000 -3.699797 -77.481755 3.289540 -25.089706 -7.764108 -32.207170 13.234135 16.681543 53.379137 51.128607 4.823489 -26.176000 -14.369400 2.255617 5.029745 0.000000 0.000000 0.000000 0.080290 -72.972088 1.730117 1.986305 4.174282 -0.066222 -2.835244 0.195741 4.859193 0.194110 -0.741348 0.164616 -0.023939 0.004389 0.060754 -1.107181 1.685157 10.075186 5.770639 24.359426 -9.895898 -14.772871 -6.298419 18.454061 0.000000 0.000000 0.000000 -1.511211 -0.010856 8.980971 -8.238759 0.750358 4.377843 -3.752199 -6.433627 5.601801 5.703039 -20.012111 -62.649657 11.788214 -14.078113 7.230179 0.000000 0.000000 0.000000 -1.883011 -0.644185 6.005724 1.118730 16.634210 -4.883718 6.647046 -3.800676 12.962202 36.971353 65.961275 29.392766 173.965301 84.454258 -174.248835 0.000000 0.000000 0.000000 
0.529179 27.009367 -3.309355 -0.214958 0.125848 0.062138 2.664960 -78.004886 -0.969062 47.337985 38.843730 -14.395795 -15.000554 -14.569936 39.925816 -45.264828 21.393052 -6.882364 -1.014539 -7.246198 3.508496 0.000000 0.000000 0.000000 -2.985508 -77.439052 3.025193 -25.085115 -8.242519 -33.022233 13.225454 15.879874 53.413418 50.395455 4.998936 -25.362108 -15.407220 2.542929 5.127317 0.000000 0.000000 0.000000 0.630355 -73.466539 1.289663 1.972784 4.122558 -0.712609 -2.586842 -0.003863 4.546068 0.178296 -0.668003 0.142030 -0.020103 -0.014445 0.004024 -0.754739 1.268711 9.916840 6.057679 24.400164 -8.715816 -16.940336 -4.849352 16.323080 0.000000 0.000000 0.000000 -1.549124 -0.201494 8.081388 -10.837211 1.417810 4.183843 -2.223758 -6.162893 5.900667 2.901039 -21.551967 -59.340786 11.568793 -15.744930 7.511746 0.000000 0.000000 0.000000 -1.790909 -0.874221 5.715417 1.076375 15.288987 -5.277010 5.715324 -4.341775 12.055671 40.118912 64.826862 32.471122 171.993152 85.915625 -176.798381 0.000000 0.000000 0.000000 
0.426408 27.222113 -3.314983 -0.021649 0.064643 0.022548 2.460248 -78.421172 -0.471213 47.196027 37.883214 -13.387723 -14.151044 -14.143122 38.499768 -46.304557 22.411212 -7.761725 -1.484199 -5.743597 2.937464 0.000000 0.000000 0.000000 -2.996410 -77.637722 3.187205 -24.932726 -8.958170 -33.533456 13.167683 15.264044 52.985152 49.282004 4.917589 -24.228962 -16.435290 3.089705 5.894270 0.000000 0.000000 0.000000 0.680123 -74.142830 1.205827 1.896128 4.192727 -1.236852 -2.305056 -0.237928 4.443723 0.136732 -0.599781 0.170912 -0.020693 -0.007550 -0.006776 -0.342461 0.880162 9.657179 6.343215 24.443924 -7.473813 -19.623308 -2.399196 12.365326 0.000000 0.000000 0.000000 -1.470755 -0.407761 7.209277 -13.739585 1.351043 3.955072 -0.084187 -6.395600 6.039949 -1.324470 -23.244713 -53.979678 10.759777 -19.744002 7.077080 0.000000 0.000000 0.000000 -1.482762 -1.069830 5.507230 1.548047 13.094387 -5.645549 5.097608 -3.280356 10.830686 44.267836 62.576226 36.954571 137.226082 89.091294 147.675916 0.000000 0.000000 0.000000 
0.276230 27.556036 -3.264016 -0.085320 -0.020250 -0.053630 2.925787 -78.447134 -0.771961 46.347321 36.454352 -12.006637 -12.721645 -13.780069 35.926617 -47.995203 24.199777 -8.638714 -4.088377 -4.060809 0.829168 0.000000 0.000000 0.000000 -0.846932 -77.809044 1.501807 -25.151181 -9.703589 -33.503000 12.828886 15.309761 51.984935 48.530167 4.886328 -22.872676 -16.693628 3.378044 5.958509 0.000000 0.000000 0.000000 0.834165 -74.687668 1.011191 1.802035 4.257985 -1.330059 -1.936433 -0.535112 4.485061 0.108969 -0.611932 0.185618 -0.021216 -0.023132 -0.056258 0.007748 0.408204 9.333499 6.482215 24.251246 -6.270277 -22.422866 0.055555 7.353969 0.000000 0.000000 0.000000 -1.477306 -0.637920 6.623496 -16.574525 0.291225 3.921769 1.734694 -6.736469 7.117660 -6.350748 -24.711416 -46.459196 9.482515 -26.183783 7.065710 0.000000 0.000000 0.000000 -1.107991 -1.088528 5.425793 2.516499 10.271292 -6.129072 4.742820 -1.389989 9.474650 48.085078 59.566797 41.016976 13.010842 85.047576 22.576248 0.000000 0.000000 0.000000 
0.129795 27.945570 -3.217892 -0.105280 -0.016660 -0.078037 3.905149 -78.103555 -1.772918 44.850092 34.947448 -11.023131 -10.799266 -13.370565 32.769021 -49.550779 26.143314 -9.406075 -7.657727 -3.912172 -2.141900 0.000000 0.000000 0.000000 2.179921 -77.699126 -1.179596 -25.455956 -10.053496 -32.683425 11.952995 15.727328 50.344201 48.357152 4.810337 -21.739708 -17.206896 3.685024 5.777081 0.000000 0.000000 0.000000 1.553430 -74.858969 0.126250 1.737049 4.230642 -1.020149 -1.527633 -0.914946 4.627920 0.043984 -0.685176 0.205054 -0.062486 -0.003450 -0.013869 0.305227 0.050567 8.826525 6.567851 23.948547 -5.056327 -25.001655 2.242176 2.270192 0.000000 0.000000 0.000000 -1.450419 -1.033426 6.365611 -18.521547 -1.714823 4.159006 2.901494 -6.755857 8.531601 -10.736871 -26.475476 -38.024008 7.945907 -34.879054 7.388448 0.000000 0.000000 0.000000 -0.659156 -1.460860 5.549697 4.251176 7.342173 -6.575886 4.253560 0.299825 7.897096 50.856267 56.378014 43.870083 7.603110 77.283932 16.281101 0.000000 0.000000 0.000000 
0.051787 28.348513 -3.136225 -0.195272 -0.013021 0.170448 6.873343 -77.269145 -4.730034 42.907767 34.554747 -10.706979 -8.745293 -13.183536 29.618009 -49.672469 26.865216 -8.406943 -8.969958 -4.775641 -4.567265 0.000000 0.000000 0.000000 5.882903 -76.915334 -4.420364 -25.997459 -9.921876 -30.912637 10.475091 16.404016 47.650060 48.331074 4.451638 -20.950681 -17.473933 3.798858 5.407239 0.000000 0.000000 0.000000 3.795627 -74.571684 -2.326662 1.801015 3.963739 -0.332529 -1.044875 -1.412260 4.806117 0.051132 -0.844576 0.144278 -0.020693 0.015711 -0.002721 0.336353 -0.406957 8.463704 6.267605 23.410011 -3.923943 -26.480770 3.548584 -2.352375 0.000000 0.000000 0.000000 -1.555550 -1.488879 6.508073 -18.969157 -4.454400 4.516646 2.318586 -6.185210 9.292336 -13.012964 -29.116086 -29.750173 5.982142 -45.391822 8.085821 0.000000 0.000000 0.000000 -0.367612 -1.702254 5.671351 6.411345 4.741940 -6.926285 4.191247 1.071581 6.179208 52.074742 53.424831 44.861622 5.634186 67.819694 13.541395 0.000000 0.000000 0.000000 
0.051907 28.694010 -3.047958 -0.099326 0.077988 0.185111 8.362104 -76.151439 -6.396211 41.215417 33.902382 -11.537410 -7.134300 -13.346998 27.601568 -50.067465 26.967607 -6.158638 -9.019692 -6.822838 -5.392661 0.000000 0.000000 0.000000 6.823576 -76.094598 -5.285890 -26.391013 -9.172832 -28.662981 8.818168 16.735828 44.724137 48.320204 3.646154 -20.862082 -17.720422 3.911668 5.916216 0.000000 0.000000 0.000000 6.315076 -73.929046 -5.059568 1.627025 3.331253 0.345929 -0.731673 -2.058907 4.933440 0.045935 -1.036299 0.054512 -0.033024 0.004556 0.003487 0.395515 -0.872467 8.164930 5.887371 22.902289 -2.399608 -27.055131 4.415715 -5.951689 0.000000 0.000000 0.000000 -1.491179 -2.080172 6.872447 -17.058428 -7.651647 4.773067 0.600762 -5.270641 9.871427 -11.718476 -33.853833 -24.235384 3.382227 -56.293446 9.678362 0.000000 0.000000 0.000000 0.068012 -2.137541 6.044405 8.768219 2.961620 -7.089476 4.531561 1.422949 4.317847 51.498134 50.776139 43.597777 4.575045 58.259034 11.995440 0.000000 0.000000 0.000000 
0.085140 28.981012 -2.864215 -0.175663 -0.091725 0.143149 9.443389 -74.975396 -7.277773 39.964086 34.435649 -13.201601 -6.010835 -14.801030 26.449358 -51.779104 27.385789 -2.187531 -10.430273 -10.140300 -6.372968 0.000000 0.000000 0.000000 7.304888 -74.993203 -5.485042 -27.057347 -8.391429 -26.579439 6.986093 16.407890 41.873195 48.527514 2.752927 -21.018977 -17.687472 4.043323 6.966036 0.000000 0.000000 0.000000 8.860867 -73.089677 -7.586093 1.445822 2.341744 0.997333 -0.433925 -2.764315 5.199630 0.076217 -1.157403 0.038236 -0.108323 0.037133 0.020371 0.500734 -1.510604 7.869186 5.234962 22.358240 -1.265812 -26.617283 5.018840 -8.325264 0.000000 0.000000 0.000000 -1.184822 -2.829657 7.281234 -12.592636 -11.108019 4.764469 -0.828428 -4.182552 10.404863 -4.850120 -41.500147 -25.101061 -0.350884 -65.756273 12.185524 0.000000 0.000000 0.000000 0.583678 -2.766063 6.340334 10.882302 2.263409 -7.017475 4.941197 1.449288 2.722958 49.035793 47.857865 39.729824 3.509769 50.576639 10.656876 0.000000 0.000000 0.000000 
0.117368 29.232195 -2.612003 -0.173293 -0.025521 0.165282 10.457822 -74.047782 -7.838737 39.166842 35.392739 -14.671921 -5.018312 -16.332295 25.258429 -54.843878 27.536620 1.108139 -11.104648 -8.891679 -6.812493 0.000000 0.000000 0.000000 7.661818 -74.270657 -5.208552 -27.903669 -7.743043 -25.262457 5.328658 15.237471 39.245509 49.733456 1.693164 -20.498550 -17.882364 4.377300 7.700027 0.000000 0.000000 0.000000 10.539656 -72.283749 -8.915880 1.207387 0.953276 1.212356 -0.155785 -3.628619 5.480953 0.156323 -1.267265 0.123908 -0.055440 0.015567 0.050427 0.582313 -2.218164 7.621569 4.343217 21.937697 -0.544490 -25.475221 5.921751 -9.481147 0.000000 0.000000 0.000000 -0.628353 -3.695171 7.650147 -5.980252 -14.549631 4.404673 -1.624731 -2.729602 10.644719 10.464120 -49.944204 -36.658527 -5.955657 -72.569373 16.017350 0.000000 0.000000 0.000000 0.927030 -3.583828 6.631085 12.909401 2.630162 -6.469419 4.976481 1.256679 1.659580 45.293027 44.016393 33.310501 2.220182 45.835771 9.282057 0.000000 0.000000 0.000000 
